 http://www.scenespeeds.com/

 Description
 
http://www.imdb.com/title/tt1517489/
Subtitles: NL
Date: 2012.02

Director: Robert Rodriguez

Genres: Action | Adventure | Comedy | Family | Sci-Fi

Plot:
A retired spy is called back into action, and to bond with her new step-children, she invites
them along for the adventure to stop the evil Timekeeper from taking over the world.

Cast:
Jessica Alba ... Marissa Wilson
Joel McHale ... Wilbur Wilson
Rowan Blanchard ... Rebecca Wilson
Mason Cook ... Cecil Wilson
Jeremy Piven ... Danger D'Amo / Tick Tock / Time Keeper
Alexa Vega ... Carmen Cortez
Daryl Sabara ... Juni Cortez
Danny Trejo ... Uncle Machete
Belle Solorzano ... Spy Baby
Genny Solorzano ... Spy Baby
Ricky Gervais ... Argonaut (voice)
Elmo ... Argonaut
Jett Good ... Young Danger
Chuck Cureau ... News Anchor
Albert Im ... Head Scientist

Stats:
Format : AVI
Format/Info : Audio Video Interleave
File size : 701 MiB
Duration : 1h 24mn
Overall bit rate : 1 164 Kbps
Writing application : VirtualDubMod 1.5.10.2 (build 2540/release)
Writing library : VirtualDubMod build 2540/release

Video
ID : 0
Format : MPEG-4 Visual
Format profile : Advanced Simple@L5
Format settings, BVOP : Yes
Format settings, QPel : No
Format settings, GMC : No warppoints
Format settings, Matrix : Default (H.263)
Muxing mode : Packed bitstream
Codec ID : XVID
Codec ID/Hint : XviD
Duration : 1h 24mn
Bit rate : 1 003 Kbps
Width : 624 pixels
Height : 352 pixels
Display aspect ratio : 16:9
Frame rate : 25.000 fps
Color space : YUV
Chroma subsampling : 4:2:0
Bit depth : 8 bits
Scan type : Progressive
Bits/(Pixel*Frame) : 0.183
Stream size : 603 MiB (86%)
Writing library : XviD 62

Audio
ID : 1
Format : MPEG Audio
Format version : Version 1
Format profile : Layer 3
Mode : Joint stereo
Mode extension : MS Stereo
Codec ID : 55
Codec ID/Hint : MP3
Duration : 1h 24mn
Bit rate mode : Variable
Bit rate : 154 Kbps
Channel(s) : 2 channels
Sampling rate : 48.0 KHz
Stream size : 89.6 MiB (13%)
Alignment : Aligned on interleaves
Interleave, duration : 24 ms (0.60 video frame)
Interleave, preload duration : 544 ms
Writing library : LAME3.98r
Encoding settings : -m j -V 4 -q 2 -lowpass 17.5 --abr 154

Release notes:
Special thanks to SPiRO for contributing to this release. 
   
http://www.scenespeeds.com/